<svg xmlns="http://www.w3.org/2000/svg"  viewBox="0 0 32 32" width="512px" height="512px"><path d="M 8.6621094 2 C 8.1091094 2 7.6621094 2.447 7.6621094 3 C 7.6621094 3.553 8.1091094 4 8.6621094 4 L 8.7773438 4 L 25.259766 4 C 26.087766 4 26.759766 4.672 26.759766 5.5 C 26.759766 6.328 26.089719 7 25.261719 7 L 6.7382812 7 C 5.9102812 7 5.2382812 6.328 5.2382812 5.5 C 5.2382812 4.87 5.6286875 4.3333281 6.1796875 4.1113281 L 6.1757812 4.1015625 C 6.5807813 3.8115625 6.728375 3.2692656 6.484375 2.8222656 C 6.220375 2.3362656 5.6129062 2.1578281 5.1289062 2.4238281 C 3.8689063 3.1088281 3.1603125 4.4684844 3.3203125 5.8964844 L 5.7050781 26.052734 C 5.7320781 26.283734 5.8407656 26.49625 6.0097656 26.65625 L 11.310547 31.722656 C 11.662547 32.060656 12.207609 32.091828 12.599609 31.798828 L 16 29.248047 L 19.400391 31.798828 C 19.579391 31.932828 19.79 31.998047 20 31.998047 C 20.252 31.998047 20.503312 31.90475 20.695312 31.71875 L 26.001953 26.582031 C 26.166953 26.422031 26.273781 26.210469 26.300781 25.980469 L 28.681641 5.890625 C 28.792641 4.903625 28.4765 3.9109687 27.8125 3.1679688 C 27.1485 2.4259688 26.196172 2 25.201172 2 L 8.6621094 2 z M 13 9 C 14.202 9 15.267 9.5409062 16 10.378906 C 16.733 9.5409063 17.798 9 19 9 C 21.209 9 23 10.791 23 13 C 23 15.209 21.209 17 19 17 C 17.798 17 16.733 16.459094 16 15.621094 C 15.267 16.459094 14.202 17 13 17 C 10.791 17 9 15.209 9 13 C 9 10.791 10.791 9 13 9 z M 13.5 12 A 1.5 1.5 0 0 0 13.5 15 A 1.5 1.5 0 0 0 13.5 12 z M 18.5 12 A 1.5 1.5 0 0 0 18.5 15 A 1.5 1.5 0 0 0 18.5 12 z M 23.134766 18.007812 C 23.388391 18.042313 23.629375 18.175031 23.796875 18.394531 C 24.130875 18.833531 24.045469 19.461875 23.605469 19.796875 C 22.517469 20.625875 21.351 21.192875 20 21.546875 L 20 23.183594 C 20 23.634594 19.634594 24 19.183594 24 L 17.816406 24 C 17.365406 24 17 23.634594 17 23.183594 L 17 21.974609 C 16.675 21.989609 16.346 22 16 22 C 15.654 22 15.325 21.988609 15 21.974609 L 15 23.183594 C 15 23.634594 14.634594 24 14.183594 24 L 12.816406 24 C 12.365406 24 12 23.634594 12 23.183594 L 12 21.546875 C 10.649 21.192875 9.4825313 20.625875 8.3945312 19.796875 C 7.9555312 19.461875 7.8710781 18.832531 8.2050781 18.394531 C 8.5400781 17.955531 9.1664688 17.870078 9.6054688 18.205078 C 11.279469 19.480078 13.133 20 16 20 C 18.867 20 20.719531 19.478125 22.394531 18.203125 C 22.613531 18.035625 22.881141 17.973312 23.134766 18.007812 z M 9.2617188 27 L 15.998047 27 C 15.788047 27 15.578391 27.067172 15.400391 27.201172 L 12.078125 29.691406 L 9.2617188 27 z M 16.001953 27 L 22.697266 27 L 19.917969 29.689453 L 16.599609 27.201172 C 16.421609 27.067172 16.211953 27 16.001953 27 z"/></svg>