<svg xmlns="http://www.w3.org/2000/svg"  viewBox="0 0 50 50" width="500px" height="500px" baseProfile="basic"><rect width="4" height="4" x="20" y="29" fill="#16d6fa"/><rect width="34" height="4" x="8" y="36" fill="#16d6fa"/><rect width="4" height="4" x="26" y="29" fill="#16d6fa"/><circle cx="19" cy="12" r="2" fill="#742bc9"/><circle cx="31" cy="12" r="2" fill="#742bc9"/><polygon fill="#ffd217" points="43.995,44.143 40.005,43.857 42.852,4 7.148,4 9.995,43.857 6.005,44.143 2.852,0 47.148,0"/><polygon fill="#00a4ff" points="5.423,36 5.709,40 9.72,40 9.434,36"/><polygon fill="#00a4ff" points="40.566,36 40.28,40 44.291,40 44.577,36"/><path fill="#af87ce" d="M19,22c-4.411,0-8-3.589-8-8s3.589-8,8-8s8,3.589,8,8S23.411,22,19,22z M19,10c-2.206,0-4,1.794-4,4 s1.794,4,4,4s4-1.794,4-4S21.206,10,19,10z"/><path fill="#af87ce" d="M31,22c-4.411,0-8-3.589-8-8s3.589-8,8-8s8,3.589,8,8S35.411,22,31,22z M31,10c-2.206,0-4,1.794-4,4 s1.794,4,4,4s4-1.794,4-4S33.206,10,31,10z"/><path fill="#af87ce" d="M25,30c-5.185,0-10.037-1.638-13.313-4.492l2.627-3.016C16.873,24.722,20.768,26,25,26 s8.127-1.278,10.687-3.508l2.627,3.016C35.037,28.362,30.185,30,25,30z"/><polygon fill="#ff64bd" points="29,46.85 25,50 21,46.85 24,39.5 26,39.5"/><polygon fill="#d8007c" points="21.111,36 23.703,40 26.296,40 28.889,36"/></svg>